<?xml version="1.0" encoding="iso-8859-1"?>
<!-- Uploaded to: SVG Repo, www.svgrepo.com, Generator: SVG Repo Mixer Tools -->
<svg version="1.1" id="Layer_1" xmlns="http://www.w3.org/2000/svg" xmlns:xlink="http://www.w3.org/1999/xlink" 
	 viewBox="0 0 512 512" xml:space="preserve">
<rect x="0.108" y="0.055" style="fill:#F2F2F2;" width="511.885" height="511.885"/>
<rect x="0.108" y="240.005" style="fill:#C5FFCA;" width="79.981" height="63.987"/>
<rect x="0.108" y="304.525" style="fill:#FFFFFF;" width="79.981" height="39.457"/>
<g>
	<polyline style="fill:#AA603B;" points="0.104,367.781 96.215,367.781 96.215,343.753 0.104,343.753 	"/>
	<rect x="0.108" y="472.416" style="fill:#AA603B;" width="151.97" height="39.532"/>
	<rect x="0.108" y="96.037" style="fill:#AA603B;" width="151.97" height="39.991"/>
	<rect x="152.075" y="415.962" style="fill:#AA603B;" width="351.923" height="87.983"/>
	<rect x="152.075" y="40.042" style="fill:#AA603B;" width="351.923" height="87.983"/>
</g>
<g>
	<rect x="296.043" y="240.005" style="fill:#99C6E4;" width="159.962" height="175.967"/>
	<rect x="296.043" y="8.053" style="fill:#99C6E4;" width="159.962" height="31.993"/>
</g>
<g>
	<rect x="200.068" y="240.005" style="fill:#FFFFFF;" width="95.975" height="175.967"/>
	<rect x="200.068" y="0.055" style="fill:#FFFFFF;" width="95.975" height="39.991"/>
</g>
<rect x="0.104" y="472.249" width="135.809" height="15.67"/>
<rect x="0.104" y="496.277" width="135.809" height="15.67"/>
<path d="M512,391.809v-15.67H144.271v15.67h15.67v16.321H144.24v103.652h367.593V408.13H496.33v-16.321H512z M175.612,391.809
	h144.167v16.321H175.612V391.809z M496.163,496.111H159.91V423.8h336.253V496.111z M480.659,408.13H335.448v-16.321h145.211V408.13z
	"/>
<rect x="232.024" y="472.249" width="15.67" height="15.67"/>
<rect x="407.532" y="472.249" width="16.715" height="15.67"/>
<polygon points="192.326,231.972 192.326,367.781 207.997,367.781 207.997,247.642 288.437,247.642 288.437,367.781 
	304.108,367.781 304.108,247.642 448.274,247.642 448.274,367.781 463.945,367.781 463.945,231.972 "/>
<g>
	
		<rect x="320.2" y="268.679" transform="matrix(-0.7071 -0.7071 0.7071 -0.7071 362.0085 709.9293)" style="fill:#FFFFFF;" width="15.67" height="22.622"/>
	
		<rect x="344.195" y="258.738" transform="matrix(-0.7071 -0.7071 0.7071 -0.7071 386.0048 767.8531)" style="fill:#FFFFFF;" width="15.67" height="90.49"/>
	
		<rect x="374.178" y="262.598" transform="matrix(-0.7071 -0.7071 0.7071 -0.7071 424.4616 819.7836)" style="fill:#FFFFFF;" width="15.67" height="118.769"/>
	
		<rect x="396.192" y="331.01" transform="matrix(-0.7071 -0.7071 0.7071 -0.7071 443.6606 879.7225)" style="fill:#FFFFFF;" width="15.67" height="33.933"/>
</g>
<polygon points="87.858,336.44 87.858,232.127 0,232.576 0.079,248.246 72.188,247.878 72.188,264.357 0.104,264.357 0.104,280.027 
	72.188,280.027 72.188,295.697 0.104,295.697 0.104,311.368 72.188,311.368 72.188,336.44 0.104,336.44 0.104,352.11 87.858,352.11 
	87.858,360.468 0.104,360.468 0.104,376.138 103.528,376.138 103.528,336.44 "/>
<rect x="0.104" y="96.163" width="135.809" height="15.67"/>
<rect x="0.104" y="120.19" width="135.809" height="15.67"/>
<path d="M512,15.722V0.052H144.271v15.67h15.67v16.489H144.24v103.65h367.593V32.211H496.33V15.722H512z M335.448,15.722h145.211
	v16.489H335.448V15.722z M175.612,15.722h144.167v16.489H175.612V15.722z M496.163,120.192H159.91v-72.31h336.253V120.192z"/>
<rect x="232.024" y="96.163" width="15.67" height="15.67"/>
<rect x="407.532" y="96.163" width="16.715" height="15.67"/>
</svg>