<?xml version="1.0" ?>
<!DOCTYPE svg  PUBLIC '-//W3C//DTD SVG 1.1//EN'  'http://www.w3.org/Graphics/SVG/1.1/DTD/svg11.dtd'>
<!-- Uploaded to: SVG Repo, www.svgrepo.com, Generator: SVG Repo Mixer Tools -->
<svg width="800px" height="800px" viewBox="0 0 512 512" version="1.1" xml:space="preserve" xmlns="http://www.w3.org/2000/svg" xmlns:xlink="http://www.w3.org/1999/xlink">
<g id="_x35_14_x2C__world__x2C__education_globe_x2C__pencil">
<g>
<polygon points="131,61 131,121 41,91   " style="fill:#57606F;"/>
<polygon points="41,91 54.75,95.583 122.5,73 122.5,118.167 131,121 131,61   " style="fill:#414A56;"/>
<path d="M441,61c16.57,0,30,13.43,30,30s-13.43,30-30,30h-30V61H441z" style="fill:#FF7979;"/>
<path d="M419,71h30c7.162,0,13.733,2.513,18.892,6.699C462.988,67.805,452.792,61,441,61h-30v60h8V71z" style="fill:#D65B5B;"/>
<path d="M411,61v60H131V61H411z" style="fill:#D7DEED;"/>
<polygon points="140.5,71 411,71 411,61 131,61 131,121 140.5,121   " style="fill:#AFB9D2;"/>
<rect height="20" width="20" x="251" y="81"/>
<rect height="20" width="20" x="221" y="81"/>
<rect height="20" width="20" x="191" y="81"/>
<path d="M431,456H91c-2.761,0-5-2.238-5-5s2.239-5,5-5h340c2.762,0,5,2.238,5,5S433.762,456,431,456z"/>
<path d="M411,126H131c-2.761,0-5-2.239-5-5s2.239-5,5-5h280c2.762,0,5,2.239,5,5S413.762,126,411,126z"/>
<path d="M411,66H131c-2.761,0-5-2.239-5-5s2.239-5,5-5h280c2.762,0,5,2.239,5,5S413.762,66,411,66z"/>
<path d="M441,126h-30c-2.762,0-5-2.239-5-5V61c0-2.761,2.238-5,5-5h30c19.299,0,35,15.701,35,35S460.299,126,441,126z M416,116h25    c13.785,0,25-11.215,25-25s-11.215-25-25-25h-25V116z"/>
<path d="M131,126c-0.531,0-1.064-0.084-1.581-0.257l-90-30C37.377,95.063,36,93.152,36,91s1.377-4.063,3.419-4.743l90-30    c1.525-0.508,3.201-0.252,4.504,0.687C135.228,57.884,136,59.393,136,61v60c0,1.607-0.772,3.116-2.077,4.056    C133.062,125.678,132.036,126,131,126z M56.812,91L126,114.063V67.937L56.812,91z"/>
<g>
<path d="M257.21,381l0.96,59.64c-22.54,0.36-42.82-22.26-55.33-57.12c16.83-1.64,34.68-2.52,53.16-2.52     C256.4,381,256.81,381,257.21,381z" style="fill:#5EB2E5;"/>
<path d="M257.21,381l0.96,59.64c-22.54,0.36-42.82-22.26-55.33-57.12c16.83-1.64,34.68-2.52,53.16-2.52     C256.4,381,256.81,381,257.21,381z" style="fill:#529FC6;"/>
<path d="M257.326,388.227c-14.818,0.265-29.181,1.085-42.861,2.418     c7.514,20.938,17.833,37.45,29.758,47.229c-0.198-0.082-0.394-0.176-0.592-0.262c7.921,6.486,16.549,10.008,25.539,9.864     l-0.96-59.64c-0.399,0-0.81,0-1.21,0c-3.249,0-6.471,0.037-9.679,0.091L257.326,388.227z" style="fill:#5EB2E5;"/>
<path d="M310.99,383.7c-11.46,34.16-30.69,56.58-52.82,56.939L257.21,381     C275.93,381.04,293.99,381.98,310.99,383.7z" style="fill:#70D3F3;"/>
<path d="M303.111,382.973c-10.436,28.562-26.482,48.085-45.033,51.96l0.092,5.707     c22.13-0.359,41.36-22.779,52.82-56.939C308.391,383.438,305.759,383.199,303.111,382.973z" style="fill:#54BBD3;"/>
<path d="M371.2,394.05c-26.01,33.99-66.74,56.19-112.86,56.931c-0.8,0.01-1.59,0.02-2.38,0.02     c-46.84,0-88.63-22.29-115.16-56.95c18.19-4.7,39.18-8.31,62.04-10.53c12.51,34.86,32.79,57.48,55.33,57.12     c22.13-0.359,41.36-22.779,52.82-56.939C333.13,385.93,353.49,389.47,371.2,394.05z" style="fill:#5EB2E5;"/>
<g>
<g>
<g>
<path d="M310.99,383.7c-0.77,2.294-1.577,4.531-2.416,6.717c16.469,2.173,31.76,5.09,45.459,8.633        c-16.766,21.909-39.652,38.908-66.151,48.431c33.778-7.575,63.028-26.914,83.318-53.431        C353.49,389.47,333.13,385.93,310.99,383.7z" style="fill:#529FC6;"/>
</g>
</g>
</g>
<g>
<g>
<g>
<path d="M156.93,399.05c14.508-3.749,30.801-6.801,48.399-9.011c-0.86-2.122-1.691-4.295-2.489-6.52        c-22.86,2.221-43.85,5.83-62.04,10.53c19.747,25.798,47.951,44.734,80.396,52.735        C195.554,437.156,173.325,420.47,156.93,399.05z" style="fill:#529FC6;"/>
</g>
</g>
</g>
<path d="M400.98,303.66c0.55,33.95-10.62,65.37-29.78,90.39c-17.71-4.58-38.07-8.12-60.21-10.35     c7.47-22.23,11.63-49.44,11.16-78.771c0-0.01,0-0.029,0-0.04L400.98,303.66z" style="fill:#70D3F3;"/>
<path d="M400.98,303.66l-78.83,1.229c0,0.011,0,0.03,0,0.04c0.051,3.144,0.037,6.257-0.018,9.349     l69.098-1.078c0.478,29.483-7.889,57.057-22.646,80.188c0.876,0.219,1.751,0.438,2.615,0.661     C390.36,369.03,401.53,337.61,400.98,303.66z" style="fill:#54BBD3;"/>
<path d="M322.15,304.89c0,0.011,0,0.03,0,0.04c0.47,29.33-3.69,56.54-11.16,78.771     c-17-1.72-35.061-2.66-53.78-2.7L256,305.93L322.15,304.89z" style="fill:#5EB2E5;"/>
<path d="M322.15,304.93c0-0.01,0-0.029,0-0.04L256,305.93l0.132,8.175l57.519-0.904c0,0.011,0,0.03,0,0.04     c0.409,25.543-2.695,49.475-8.438,69.913c1.938,0.174,3.866,0.354,5.777,0.547C318.46,361.47,322.62,334.26,322.15,304.93z" style="fill:#529FC6;"/>
<path d="M256,305.93l1.21,75.07c-0.4,0-0.81,0-1.21,0c-18.48,0-36.33,0.88-53.16,2.52     c-7.76-21.63-12.54-47.97-12.99-76.449c0-0.03,0-0.07,0-0.101L256,305.93z" style="fill:#70D3F3;"/>
<path d="M198.06,315.32c0-0.03,0-0.07,0-0.101l58.075-0.913L256,305.93l-66.15,1.04c0,0.03,0,0.07,0,0.101     c0.45,28.479,5.23,54.819,12.99,76.449c1.761-0.172,3.539-0.33,5.322-0.484C202.116,363.203,198.451,340.072,198.06,315.32z" style="fill:#54BBD3;"/>
<path d="M202.84,383.52c-22.86,2.221-43.85,5.83-62.04,10.53c-18.23-23.8-29.26-53.43-29.78-85.71     c0-0.05,0-0.09,0-0.14l78.83-1.23c0,0.03,0,0.07,0,0.101C190.3,335.55,195.08,361.89,202.84,383.52z" style="fill:#5EB2E5;"/>
<path d="M121.02,318.59c0-0.05,0-0.09,0-0.14l69.187-1.08c-0.181-3.398-0.302-6.833-0.357-10.3     c0-0.03,0-0.07,0-0.101l-78.83,1.23c0,0.05,0,0.09,0,0.14c0.52,32.28,11.55,61.91,29.78,85.71     c0.807-0.208,1.625-0.412,2.443-0.616C129.559,371.729,121.464,346.125,121.02,318.59z" style="fill:#529FC6;"/>
<path d="M134.83,226.34c18.29,5.14,39.72,9.14,63.23,11.65c-5.59,20.229-8.61,43.83-8.21,68.979     l-78.83,1.23C110.56,277.99,119.37,249.8,134.83,226.34z" style="fill:#70D3F3;"/>
<path d="M139.61,237.99c16.341,4.592,35.193,8.271,55.791,10.794c0.809-3.69,1.692-7.296,2.659-10.794     c-23.51-2.51-44.94-6.51-63.23-11.65c-15.46,23.46-24.27,51.65-23.81,81.86l5.077-0.079     C117.764,282.357,126.17,258.385,139.61,237.99z" style="fill:#54BBD3;"/>
<path d="M400.98,303.66l-78.83,1.229c-0.391-24.34-3.94-47.12-9.82-66.729     c24.15-2.49,46.14-6.56,64.84-11.82C391.81,248.56,400.52,275.08,400.98,303.66z" style="fill:#5EB2E5;"/>
<path d="M372.17,236.84c12.845,19.497,21.121,42.304,23.27,66.906l5.541-0.086     c-0.461-28.58-9.171-55.1-23.811-77.32c-18.7,5.26-40.689,9.33-64.84,11.82c0.939,3.134,1.813,6.358,2.631,9.648     C336.118,245.286,355.46,241.54,372.17,236.84z" style="fill:#529FC6;"/>
<path d="M322.15,304.89L256,305.93L254.95,241c0.35,0,0.7,0,1.05,0c19.65,0,38.57-0.99,56.33-2.84     C318.21,257.77,321.76,280.55,322.15,304.89z" style="fill:#70D3F3;"/>
<path d="M306.04,247.326c5.144,17.155,8.505,36.737,9.526,57.667l6.584-0.104     c-0.391-24.34-3.94-47.12-9.82-66.729C294.57,240.01,275.65,241,256,241c-0.35,0-0.7,0-1.05,0l0.147,9.132     C272.818,249.968,289.911,249.006,306.04,247.326z" style="fill:#54BBD3;"/>
<path d="M254.95,241l1.05,64.93l-66.15,1.04c-0.4-25.149,2.62-48.75,8.21-68.979     C215.97,239.91,235.09,240.96,254.95,241z" style="fill:#5EB2E5;"/>
<path d="M205.236,248.24c15.792,1.693,32.527,2.707,49.879,2.951L254.95,241     c-19.86-0.04-38.98-1.09-56.89-3.01c-5.59,20.229-8.61,43.83-8.21,68.979l7.211-0.113     C197.52,285.594,200.421,265.665,205.236,248.24z" style="fill:#529FC6;"/>
<path d="M253.83,171.36l1.12,69.64c-19.86-0.04-38.98-1.09-56.89-3.01     C208.96,198.45,229.67,171.75,253.83,171.36z" style="fill:#70D3F3;"/>
<path d="M253.961,179.538l-0.131-8.178c-24.16,0.39-44.87,27.09-55.77,66.63     c2.705,0.29,5.445,0.553,8.203,0.803C216.558,206.202,233.792,183.628,253.961,179.538z" style="fill:#54BBD3;"/>
<path d="M253.83,171.36c24.57-0.4,46.439,26.52,58.5,66.8C294.57,240.01,275.65,241,256,241     c-0.35,0-0.7,0-1.05,0L253.83,171.36z" style="fill:#5EB2E5;"/>
<path d="M305.47,238.826c2.305-0.208,4.593-0.429,6.86-0.666c-12.061-40.28-33.93-67.2-58.5-66.8     l0.102,6.352C275.249,180.775,294.056,204.345,305.47,238.826z" style="fill:#529FC6;"/>
<path d="M253.66,161.02c51.49-0.83,97.14,25.28,123.51,65.32c-18.7,5.26-40.689,9.33-64.84,11.82     c-12.061-40.28-33.93-67.2-58.5-66.8L253.66,161.02z" style="fill:#70D3F3;"/>
<path d="M367.513,228.873c3.305-0.811,6.531-1.654,9.657-2.533c-26.37-40.04-72.02-66.15-123.51-65.32     l0.129,7.883C300.477,170.082,341.813,193.395,367.513,228.873z" style="fill:#54BBD3;"/>
<path d="M253.66,161.02l0.17,10.34c-24.16,0.39-44.87,27.09-55.77,66.63     c-23.51-2.51-44.94-6.51-63.23-11.65C160.31,187.66,203.85,161.82,253.66,161.02z" style="fill:#5EB2E5;"/>
<path d="M253.815,170.43l-0.155-9.41c-49.81,0.8-93.35,26.64-118.83,65.32     c3.141,0.883,6.381,1.729,9.702,2.543C169.578,195.161,208.949,172.627,253.815,170.43z" style="fill:#529FC6;"/>
<path d="M257.64,445.644c-23.68,0-45.925-22.593-59.506-60.436c-8.247-22.986-12.84-49.979-13.283-78.059l0-0.18     c-0.393-24.682,2.508-49.022,8.391-70.311c12.019-43.6,34.639-69.88,60.509-70.298c0.206-0.003,0.414-0.005,0.621-0.005     c26.099,0,49.557,26.307,62.75,70.371c6.177,20.6,9.646,44.144,10.029,68.083c0.001,0.026,0.001,0.094,0.001,0.12     c0.464,28.93-3.485,56.746-11.421,80.363c-12.735,37.964-33.687,59.96-57.479,60.346L257.64,445.644z M254.37,176.355     l-0.458,0.004c-20.865,0.337-40.418,24.461-51.031,62.959c-5.633,20.385-8.41,43.75-8.031,67.572l0,0.18     c0.426,26.917,4.816,52.796,12.696,74.761c12.092,33.695,30.818,53.813,50.093,53.813l0.45-0.003     c19.015-0.31,37.019-20.32,48.16-53.53c7.578-22.555,11.348-49.215,10.901-77.101c-0.001-0.026-0.001-0.094-0.001-0.12     c-0.369-22.953-3.692-45.559-9.609-65.293C295.86,200.587,275.487,176.355,254.37,176.355z"/>
<path d="M111.019,313.2c-2.725,0-4.955-2.188-4.998-4.922c-0.043-2.761,2.16-5.034,4.921-5.077l289.96-4.54     c0.026-0.001,0.054-0.001,0.08-0.001c2.725,0,4.955,2.188,4.997,4.922c0.043,2.762-2.16,5.034-4.921,5.077l-289.96,4.54     C111.072,313.2,111.045,313.2,111.019,313.2z"/>
<path d="M140.804,399.05c-1.503,0-2.989-0.675-3.973-1.96c-19.634-25.633-30.289-56.294-30.81-88.67l0-0.22     c-0.46-30.173,8.059-59.457,24.635-84.612c1.519-2.306,4.62-2.943,6.926-1.423c2.306,1.52,2.943,4.62,1.423,6.926     c-15.467,23.471-23.416,50.8-22.985,79.033l0,0.216c0.486,30.136,10.428,58.75,28.749,82.67c1.679,2.191,1.263,5.33-0.929,7.01     C142.933,398.714,141.864,399.05,140.804,399.05z"/>
<path d="M371.196,399.05c-1.061,0-2.129-0.336-3.036-1.03c-2.192-1.679-2.608-4.817-0.93-7.01     c19.325-25.234,29.267-55.411,28.751-87.269c-0.431-26.665-8.379-52.479-22.986-74.65c-1.52-2.306-0.882-5.407,1.424-6.926     c2.308-1.519,5.407-0.881,6.926,1.424c15.656,23.762,24.175,51.422,24.635,79.99c0.553,34.134-10.101,66.469-30.81,93.511     C374.186,398.375,372.699,399.05,371.196,399.05z"/>
<path d="M256,246h-1.05c-19.669-0.04-38.986-1.062-57.423-3.038c-23.577-2.518-45.127-6.491-64.05-11.809     c-1.536-0.432-2.774-1.57-3.332-3.065c-0.558-1.495-0.369-3.166,0.509-4.499c27.346-41.513,73.299-66.772,122.925-67.569     c51.556-0.837,99.439,24.559,127.766,67.569c0.877,1.332,1.066,3.003,0.509,4.498c-0.558,1.495-1.795,2.634-3.331,3.065     c-19.396,5.456-41.493,9.487-65.681,11.981C294.583,245.036,275.456,246,256,246z M142.994,223.351     c16.704,4.261,35.368,7.508,55.597,9.668c18.093,1.939,37.058,2.942,56.37,2.981H256c19.112,0,37.89-0.946,55.813-2.813     c20.827-2.147,40.028-5.451,57.197-9.835c-26.362-36.037-68.087-57.351-112.965-57.351c-0.768,0-1.532,0.006-2.304,0.019     C209.755,166.726,168.861,188.022,142.994,223.351z"/>
<path d="M255.96,456c-47.052,0-90.473-21.473-119.13-58.911c-1.02-1.331-1.303-3.085-0.756-4.67     c0.547-1.585,1.852-2.791,3.476-3.21c18.784-4.854,39.916-8.442,62.808-10.666C219.676,376.855,237.725,376,256,376h1.21     c18.537,0.04,36.797,0.957,54.283,2.726c22.191,2.234,42.702,5.762,60.959,10.483c1.623,0.42,2.928,1.625,3.475,3.21     s0.263,3.338-0.756,4.669c-28.072,36.687-70.627,58.151-116.751,58.892C257.568,455.99,256.764,456,255.96,456z M149.64,397.031     C176.307,428.251,214.633,446,255.96,446c0.764,0,1.527-0.01,2.3-0.019c40.46-0.649,77.98-18.39,104.101-48.951     c-15.809-3.671-33.218-6.477-51.871-8.355c-17.162-1.736-35.091-2.636-53.29-2.675H256c-17.953,0-35.675,0.84-52.675,2.496     C183.992,390.374,165.974,393.24,149.64,397.031z"/>
<path d="M258.168,445.64c-2.724,0-4.954-2.186-4.998-4.92l-4.51-279.618c-0.045-2.761,2.156-5.036,4.917-5.082     c2.799-0.054,5.036,2.157,5.081,4.917l4.51,279.622c0.045,2.761-2.157,5.035-4.919,5.079     C258.223,445.64,258.195,445.64,258.168,445.64z"/>
</g>
</g>
</g>
<g id="Layer_1"/>
</svg>