<?xml version="1.0" encoding="iso-8859-1"?>
<!-- Uploaded to: SVG Repo, www.svgrepo.com, Generator: SVG Repo Mixer Tools -->
<svg height="800px" width="800px" version="1.1" id="Layer_1" xmlns="http://www.w3.org/2000/svg" xmlns:xlink="http://www.w3.org/1999/xlink" 
	 viewBox="0 0 512 512" xml:space="preserve">
<path style="fill:#788F5D;" d="M141.856,473.6l9.165-115.2h28.177c3.806,0,7.39-1.673,9.822-4.591
	c2.441-2.935,3.447-6.75,2.773-10.487l-25.6-140.8c-0.137-0.725-0.393-1.553-0.794-2.534l-3.84-9.378L307.206,86.673L503.465,243.2
	h-55.467v230.4H141.856z"/>
<path style="fill:#FFE7E5;" d="M102.398,140.8c-35.294,0-64-28.706-64-64s28.706-64,64-64s64,28.706,64,64
	S137.692,140.8,102.398,140.8z"/>
<polygon style="fill:#6D7584;" points="64.979,499.2 53.775,358.4 10.264,358.4 40.514,192 164.282,192 194.532,358.4 
	151.012,358.4 139.817,499.2 "/>
<g>
	<path style="fill:#573A32;" d="M501.28,209.57l-179.2-128c-4.454-3.183-9.668-4.77-14.882-4.77s-10.428,1.587-14.882,4.77
		l-137.028,97.783c-0.563-0.043-1.109-0.154-1.69-0.154h-102.4c-12.373,0-22.972,8.849-25.182,21.026l-25.6,140.8
		c-1.357,7.467,0.666,15.155,5.53,20.983c4.864,5.828,12.066,9.19,19.652,9.19h16.358l9.327,117.231
		C52.341,501.734,63.443,512,76.798,512h51.2c13.355,0,24.465-10.266,25.523-23.569l0.162-2.031h281.515
		c14.14,0,25.6-11.46,25.6-25.6V256h25.6c11.127,0,20.983-7.194,24.371-17.783C514.174,227.618,510.334,216.038,501.28,209.57z
		 M139.194,345.6l-11.196,140.8h-51.2L65.602,345.6H25.598l25.6-140.8h38.4v77.875c0,7.074,5.726,12.8,12.8,12.8
		s12.8-5.726,12.8-12.8V204.8h38.4l25.6,140.8H139.194z M435.198,230.4v230.4H155.714l7.125-89.6h16.358
		c7.595,0,14.788-3.371,19.652-9.199s6.886-13.508,5.53-20.983l-25.6-140.8c-0.324-1.783-0.879-3.465-1.536-5.094L307.198,102.4
		l179.2,128H435.198z"/>
	<path style="fill:#573A32;" d="M102.398,153.6c42.351,0,76.8-34.449,76.8-76.8S144.749,0,102.398,0
		c-42.342,0-76.8,34.458-76.8,76.8S60.056,153.6,102.398,153.6z M102.398,25.6c28.279,0,51.2,22.921,51.2,51.2
		s-22.921,51.2-51.2,51.2s-51.2-22.921-51.2-51.2S74.118,25.6,102.398,25.6z"/>
</g>
</svg>